<svg width="730" height="1058" viewBox="0 0 730 1058" fill="none" xmlns="http://www.w3.org/2000/svg">
<rect width="730" height="1058" fill="#D9D9D9"/>
<path d="M169.768 63C249.388 63 317.702 90.5086 349.765 130.056V635.617C317.7 596.059 249.38 568.556 169.768 568.556C112.636 568.556 61.4257 582.875 25.0691 605.156V99.6078C61.4269 77.0987 112.647 63.0026 169.768 63.0026V63Z" fill="#021323"/>
<g clip-path="url(#clip0_18_25)">
<path d="M69.7444 441.801C155.963 457.844 182.089 401.696 236.959 370.949C290.271 341.07 332.252 364.271 354.74 394.778C377.21 364.272 419.187 341.074 472.502 370.949C527.364 401.696 553.493 457.84 639.707 441.801C677.328 434.801 564.844 512.654 472.502 512.654C414.256 512.654 375.46 500.029 354.74 480.887C334.012 500.025 295.216 512.654 236.959 512.654C144.611 512.654 32.1237 434.8 69.7444 441.801Z" fill="#B20056"/>
<ellipse cx="108.088" cy="211.492" rx="23.0608" ry="24.2634" fill="#B20056"/>
<ellipse cx="92.4066" cy="260.019" rx="18.4486" ry="19.4108" fill="#B20056"/>
<ellipse cx="85.0271" cy="301.752" rx="13.8365" ry="14.5581" fill="#B20056"/>
<ellipse cx="84.566" cy="336.206" rx="11.5304" ry="12.1317" fill="#B20056"/>
<ellipse cx="85.027" cy="366.778" rx="9.22431" ry="9.70538" fill="#B20056"/>
</g>
<ellipse cx="218.318" cy="139.672" rx="31.8238" ry="20.3813" fill="#B20056"/>
<path d="M299.6 165.877C299.6 178.155 292.13 190.559 277.397 200.374C262.738 210.139 241.881 216.521 218.318 216.521C194.756 216.521 173.899 210.139 159.24 200.374C144.507 190.559 137.037 178.155 137.037 165.877C137.037 153.599 144.507 141.195 159.24 131.38C173.899 121.615 194.756 115.233 218.318 115.233C241.881 115.233 262.738 121.615 277.397 131.38C292.13 141.195 299.6 153.599 299.6 165.877Z" stroke="#B20056" stroke-width="21"/>
<path d="M556.512 63C476.891 63 408.578 90.5086 376.515 130.056V635.617C408.58 596.059 476.9 568.556 556.512 568.556C613.644 568.556 664.854 582.875 701.211 605.156V99.6078C664.853 77.0987 613.633 63.0026 556.512 63.0026V63Z" fill="#021323"/>
<g clip-path="url(#clip1_18_25)">
<path d="M656.535 441.801C570.316 457.844 544.191 401.696 489.321 370.949C436.009 341.07 394.028 364.271 371.54 394.778C349.07 364.272 307.093 341.074 253.778 370.949C198.915 401.696 172.787 457.84 86.5725 441.801C48.9518 434.801 161.436 512.654 253.778 512.654C312.024 512.654 350.82 500.029 371.54 480.887C392.268 500.025 431.064 512.654 489.321 512.654C581.668 512.654 694.156 434.8 656.535 441.801Z" fill="#B20056"/>
</g>
<ellipse cx="31.8238" cy="20.3813" rx="31.8238" ry="20.3813" transform="matrix(-1 0 0 1 539.785 119.291)" fill="#B20056"/>
<path d="M426.68 165.877C426.68 178.155 434.15 190.559 448.883 200.374C463.542 210.139 484.399 216.521 507.961 216.521C531.524 216.521 552.381 210.139 567.04 200.374C581.773 190.559 589.243 178.155 589.243 165.877C589.243 153.599 581.773 141.195 567.04 131.38C552.381 121.615 531.524 115.233 507.961 115.233C484.399 115.233 463.542 121.615 448.883 131.38C434.15 141.195 426.68 153.599 426.68 165.877Z" stroke="#B20056" stroke-width="21"/>
<path d="M160.356 754.176C161.295 754.176 162.127 754.539 162.852 755.264L169.636 762.624C165.881 767.275 161.252 770.837 155.748 773.312C150.287 775.787 143.716 777.024 136.036 777.024C129.167 777.024 122.98 775.851 117.476 773.504C112.015 771.157 107.343 767.893 103.46 763.712C99.5773 759.531 96.5907 754.539 94.5 748.736C92.452 742.933 91.428 736.597 91.428 729.728C91.428 722.773 92.5373 716.416 94.756 710.656C96.9747 704.853 100.089 699.861 104.1 695.68C108.153 691.499 112.975 688.256 118.564 685.952C124.153 683.605 130.34 682.432 137.124 682.432C143.865 682.432 149.839 683.541 155.044 685.76C160.292 687.979 164.751 690.88 168.42 694.464L162.66 702.464C162.319 702.976 161.871 703.424 161.316 703.808C160.804 704.192 160.079 704.384 159.14 704.384C158.5 704.384 157.839 704.213 157.156 703.872C156.473 703.488 155.727 703.04 154.916 702.528C154.105 701.973 153.167 701.376 152.1 700.736C151.033 700.096 149.796 699.52 148.388 699.008C146.98 698.453 145.337 698.005 143.46 697.664C141.625 697.28 139.492 697.088 137.06 697.088C132.921 697.088 129.124 697.835 125.668 699.328C122.255 700.779 119.311 702.912 116.836 705.728C114.361 708.501 112.441 711.915 111.076 715.968C109.711 719.979 109.028 724.565 109.028 729.728C109.028 734.933 109.753 739.563 111.204 743.616C112.697 747.669 114.703 751.083 117.22 753.856C119.737 756.629 122.703 758.763 126.116 760.256C129.529 761.707 133.199 762.432 137.124 762.432C139.471 762.432 141.583 762.304 143.46 762.048C145.38 761.792 147.129 761.387 148.708 760.832C150.329 760.277 151.844 759.573 153.252 758.72C154.703 757.824 156.132 756.736 157.54 755.456C157.967 755.072 158.415 754.773 158.884 754.56C159.353 754.304 159.844 754.176 160.356 754.176ZM206.614 709.312C211.478 709.312 215.894 710.101 219.862 711.68C223.873 713.259 227.286 715.499 230.102 718.4C232.961 721.301 235.158 724.843 236.694 729.024C238.23 733.205 238.998 737.877 238.998 743.04C238.998 748.245 238.23 752.939 236.694 757.12C235.158 761.301 232.961 764.864 230.102 767.808C227.286 770.752 223.873 773.013 219.862 774.592C215.894 776.171 211.478 776.96 206.614 776.96C201.707 776.96 197.249 776.171 193.238 774.592C189.227 773.013 185.793 770.752 182.934 767.808C180.118 764.864 177.921 761.301 176.342 757.12C174.806 752.939 174.038 748.245 174.038 743.04C174.038 737.877 174.806 733.205 176.342 729.024C177.921 724.843 180.118 721.301 182.934 718.4C185.793 715.499 189.227 713.259 193.238 711.68C197.249 710.101 201.707 709.312 206.614 709.312ZM206.614 764.8C212.075 764.8 216.107 762.965 218.71 759.296C221.355 755.627 222.678 750.251 222.678 743.168C222.678 736.085 221.355 730.688 218.71 726.976C216.107 723.264 212.075 721.408 206.614 721.408C201.067 721.408 196.95 723.285 194.262 727.04C191.617 730.752 190.294 736.128 190.294 743.168C190.294 750.208 191.617 755.584 194.262 759.296C196.95 762.965 201.067 764.8 206.614 764.8ZM308.258 710.336L282.21 776H267.874L241.826 710.336H254.882C256.077 710.336 257.058 710.613 257.826 711.168C258.637 711.723 259.17 712.427 259.426 713.28L272.098 748.352C272.781 750.4 273.378 752.405 273.89 754.368C274.402 756.331 274.85 758.293 275.234 760.256C275.661 758.293 276.13 756.331 276.642 754.368C277.154 752.405 277.773 750.4 278.498 748.352L291.426 713.28C291.725 712.427 292.258 711.723 293.026 711.168C293.794 710.613 294.711 710.336 295.778 710.336H308.258ZM356.987 735.616C356.987 733.568 356.688 731.648 356.091 729.856C355.536 728.021 354.683 726.421 353.531 725.056C352.379 723.691 350.907 722.624 349.115 721.856C347.366 721.045 345.318 720.64 342.971 720.64C338.406 720.64 334.8 721.941 332.155 724.544C329.552 727.147 327.888 730.837 327.163 735.616H356.987ZM326.843 745.152C327.099 748.523 327.696 751.445 328.635 753.92C329.574 756.352 330.811 758.379 332.347 760C333.883 761.579 335.696 762.773 337.787 763.584C339.92 764.352 342.267 764.736 344.827 764.736C347.387 764.736 349.584 764.437 351.419 763.84C353.296 763.243 354.918 762.581 356.283 761.856C357.691 761.131 358.907 760.469 359.931 759.872C360.998 759.275 362.022 758.976 363.003 758.976C364.326 758.976 365.307 759.467 365.947 760.448L370.491 766.208C368.742 768.256 366.779 769.984 364.603 771.392C362.427 772.757 360.144 773.867 357.755 774.72C355.408 775.531 352.998 776.107 350.523 776.448C348.091 776.789 345.723 776.96 343.419 776.96C338.854 776.96 334.608 776.213 330.683 774.72C326.758 773.184 323.344 770.944 320.443 768C317.542 765.013 315.259 761.344 313.595 756.992C311.931 752.597 311.099 747.52 311.099 741.76C311.099 737.28 311.824 733.077 313.275 729.152C314.726 725.184 316.795 721.749 319.483 718.848C322.214 715.904 325.52 713.579 329.403 711.872C333.328 710.165 337.744 709.312 342.651 709.312C346.79 709.312 350.608 709.973 354.107 711.296C357.606 712.619 360.614 714.56 363.131 717.12C365.648 719.637 367.611 722.752 369.019 726.464C370.47 730.133 371.195 734.336 371.195 739.072C371.195 741.461 370.939 743.083 370.427 743.936C369.915 744.747 368.934 745.152 367.483 745.152H326.843ZM397.97 721.728C400.018 717.803 402.45 714.731 405.266 712.512C408.082 710.251 411.41 709.12 415.25 709.12C418.279 709.12 420.711 709.781 422.546 711.104L421.522 722.944C421.309 723.712 420.989 724.267 420.562 724.608C420.178 724.907 419.645 725.056 418.962 725.056C418.322 725.056 417.362 724.949 416.082 724.736C414.845 724.523 413.629 724.416 412.434 724.416C410.685 724.416 409.127 724.672 407.762 725.184C406.397 725.696 405.159 726.443 404.05 727.424C402.983 728.363 402.023 729.515 401.17 730.88C400.359 732.245 399.591 733.803 398.866 735.552V776H383.058V710.336H392.338C393.959 710.336 395.09 710.635 395.73 711.232C396.37 711.787 396.797 712.811 397.01 714.304L397.97 721.728ZM473.967 718.4C475.29 717.077 476.676 715.861 478.127 714.752C479.62 713.6 481.178 712.64 482.799 711.872C484.463 711.061 486.234 710.443 488.111 710.016C489.988 709.547 492.036 709.312 494.255 709.312C497.839 709.312 501.018 709.931 503.791 711.168C506.564 712.363 508.868 714.069 510.703 716.288C512.58 718.464 513.988 721.088 514.927 724.16C515.908 727.189 516.399 730.539 516.399 734.208V776H500.591V734.208C500.591 730.197 499.674 727.104 497.839 724.928C496.004 722.709 493.21 721.6 489.455 721.6C486.724 721.6 484.164 722.219 481.775 723.456C479.386 724.693 477.124 726.379 474.991 728.512V776H459.183V710.336H468.847C470.895 710.336 472.239 711.296 472.879 713.216L473.967 718.4ZM560.489 709.312C565.353 709.312 569.769 710.101 573.737 711.68C577.748 713.259 581.161 715.499 583.977 718.4C586.836 721.301 589.033 724.843 590.569 729.024C592.105 733.205 592.873 737.877 592.873 743.04C592.873 748.245 592.105 752.939 590.569 757.12C589.033 761.301 586.836 764.864 583.977 767.808C581.161 770.752 577.748 773.013 573.737 774.592C569.769 776.171 565.353 776.96 560.489 776.96C555.582 776.96 551.124 776.171 547.113 774.592C543.102 773.013 539.668 770.752 536.809 767.808C533.993 764.864 531.796 761.301 530.217 757.12C528.681 752.939 527.913 748.245 527.913 743.04C527.913 737.877 528.681 733.205 530.217 729.024C531.796 724.843 533.993 721.301 536.809 718.4C539.668 715.499 543.102 713.259 547.113 711.68C551.124 710.101 555.582 709.312 560.489 709.312ZM560.489 764.8C565.95 764.8 569.982 762.965 572.585 759.296C575.23 755.627 576.553 750.251 576.553 743.168C576.553 736.085 575.23 730.688 572.585 726.976C569.982 723.264 565.95 721.408 560.489 721.408C554.942 721.408 550.825 723.285 548.137 727.04C545.492 730.752 544.169 736.128 544.169 743.168C544.169 750.208 545.492 755.584 548.137 759.296C550.825 762.965 554.942 764.8 560.489 764.8ZM625.571 777.024C619.854 777.024 615.459 775.424 612.387 772.224C609.358 768.981 607.843 764.523 607.843 758.848V722.176H601.123C600.27 722.176 599.544 721.899 598.947 721.344C598.35 720.789 598.051 719.957 598.051 718.848V712.576L608.611 710.848L611.939 692.928C612.152 692.075 612.558 691.413 613.155 690.944C613.752 690.475 614.52 690.24 615.459 690.24H623.651V710.912H641.187V722.176H623.651V757.76C623.651 759.808 624.142 761.408 625.123 762.56C626.147 763.712 627.534 764.288 629.283 764.288C630.264 764.288 631.075 764.181 631.715 763.968C632.398 763.712 632.974 763.456 633.443 763.2C633.955 762.944 634.403 762.709 634.787 762.496C635.171 762.24 635.555 762.112 635.939 762.112C636.408 762.112 636.792 762.24 637.091 762.496C637.39 762.709 637.71 763.051 638.051 763.52L642.787 771.2C640.483 773.12 637.838 774.571 634.851 775.552C631.864 776.533 628.771 777.024 625.571 777.024ZM109.621 901.968C105.056 902.181 101.216 902.587 98.101 903.184C94.9863 903.739 92.4903 904.464 90.613 905.36C88.7357 906.256 87.3917 907.301 86.581 908.496C85.7703 909.691 85.365 910.992 85.365 912.4C85.365 915.173 86.1757 917.157 87.797 918.352C89.461 919.547 91.6157 920.144 94.261 920.144C97.5037 920.144 100.298 919.568 102.645 918.416C105.034 917.221 107.36 915.429 109.621 913.04V901.968ZM73.397 873.488C80.949 866.576 90.037 863.12 100.661 863.12C104.501 863.12 107.936 863.76 110.965 865.04C113.994 866.277 116.554 868.027 118.645 870.288C120.736 872.507 122.314 875.173 123.381 878.288C124.49 881.403 125.045 884.816 125.045 888.528V930H117.877C116.384 930 115.232 929.787 114.421 929.36C113.61 928.891 112.97 927.973 112.501 926.608L111.093 921.872C109.429 923.365 107.808 924.688 106.229 925.84C104.65 926.949 103.008 927.888 101.301 928.656C99.5943 929.424 97.7597 930 95.797 930.384C93.877 930.811 91.7437 931.024 89.397 931.024C86.6237 931.024 84.0637 930.661 81.717 929.936C79.3703 929.168 77.3437 928.037 75.637 926.544C73.9303 925.051 72.6077 923.195 71.669 920.976C70.7303 918.757 70.261 916.176 70.261 913.232C70.261 911.568 70.5383 909.925 71.093 908.304C71.6477 906.64 72.5437 905.061 73.781 903.568C75.061 902.075 76.7037 900.667 78.709 899.344C80.7143 898.021 83.1677 896.869 86.069 895.888C89.013 894.907 92.4263 894.117 96.309 893.52C100.192 892.88 104.629 892.496 109.621 892.368V888.528C109.621 884.133 108.682 880.891 106.805 878.8C104.928 876.667 102.218 875.6 98.677 875.6C96.117 875.6 93.9837 875.899 92.277 876.496C90.613 877.093 89.141 877.776 87.861 878.544C86.581 879.269 85.4077 879.931 84.341 880.528C83.317 881.125 82.165 881.424 80.885 881.424C79.7757 881.424 78.837 881.147 78.069 880.592C77.301 879.995 76.6823 879.312 76.213 878.544L73.397 873.488ZM197.633 864.336L171.585 930H157.249L131.201 864.336H144.257C145.452 864.336 146.433 864.613 147.201 865.168C148.012 865.723 148.545 866.427 148.801 867.28L161.473 902.352C162.156 904.4 162.753 906.405 163.265 908.368C163.777 910.331 164.225 912.293 164.609 914.256C165.036 912.293 165.505 910.331 166.017 908.368C166.529 906.405 167.148 904.4 167.873 902.352L180.801 867.28C181.1 866.427 181.633 865.723 182.401 865.168C183.169 864.613 184.086 864.336 185.153 864.336H197.633ZM239.121 901.968C234.556 902.181 230.716 902.587 227.601 903.184C224.486 903.739 221.99 904.464 220.113 905.36C218.236 906.256 216.892 907.301 216.081 908.496C215.27 909.691 214.865 910.992 214.865 912.4C214.865 915.173 215.676 917.157 217.297 918.352C218.961 919.547 221.116 920.144 223.761 920.144C227.004 920.144 229.798 919.568 232.145 918.416C234.534 917.221 236.86 915.429 239.121 913.04V901.968ZM202.897 873.488C210.449 866.576 219.537 863.12 230.161 863.12C234.001 863.12 237.436 863.76 240.465 865.04C243.494 866.277 246.054 868.027 248.145 870.288C250.236 872.507 251.814 875.173 252.881 878.288C253.99 881.403 254.545 884.816 254.545 888.528V930H247.377C245.884 930 244.732 929.787 243.921 929.36C243.11 928.891 242.47 927.973 242.001 926.608L240.593 921.872C238.929 923.365 237.308 924.688 235.729 925.84C234.15 926.949 232.508 927.888 230.801 928.656C229.094 929.424 227.26 930 225.297 930.384C223.377 930.811 221.244 931.024 218.897 931.024C216.124 931.024 213.564 930.661 211.217 929.936C208.87 929.168 206.844 928.037 205.137 926.544C203.43 925.051 202.108 923.195 201.169 920.976C200.23 918.757 199.761 916.176 199.761 913.232C199.761 911.568 200.038 909.925 200.593 908.304C201.148 906.64 202.044 905.061 203.281 903.568C204.561 902.075 206.204 900.667 208.209 899.344C210.214 898.021 212.668 896.869 215.569 895.888C218.513 894.907 221.926 894.117 225.809 893.52C229.692 892.88 234.129 892.496 239.121 892.368V888.528C239.121 884.133 238.182 880.891 236.305 878.8C234.428 876.667 231.718 875.6 228.177 875.6C225.617 875.6 223.484 875.899 221.777 876.496C220.113 877.093 218.641 877.776 217.361 878.544C216.081 879.269 214.908 879.931 213.841 880.528C212.817 881.125 211.665 881.424 210.385 881.424C209.276 881.424 208.337 881.147 207.569 880.592C206.801 879.995 206.182 879.312 205.713 878.544L202.897 873.488ZM285.817 864.336V930H269.945V864.336H285.817ZM287.993 845.2C287.993 846.565 287.716 847.845 287.161 849.04C286.606 850.235 285.86 851.28 284.921 852.176C284.025 853.072 282.958 853.797 281.721 854.352C280.484 854.864 279.161 855.12 277.753 855.12C276.388 855.12 275.086 854.864 273.849 854.352C272.654 853.797 271.609 853.072 270.713 852.176C269.817 851.28 269.092 850.235 268.537 849.04C268.025 847.845 267.769 846.565 267.769 845.2C267.769 843.792 268.025 842.469 268.537 841.232C269.092 839.995 269.817 838.928 270.713 838.032C271.609 837.136 272.654 836.432 273.849 835.92C275.086 835.365 276.388 835.088 277.753 835.088C279.161 835.088 280.484 835.365 281.721 835.92C282.958 836.432 284.025 837.136 284.921 838.032C285.86 838.928 286.606 839.995 287.161 841.232C287.716 842.469 287.993 843.792 287.993 845.2ZM317.933 834.896V930H302.125V834.896H317.933ZM368.371 901.968C363.806 902.181 359.966 902.587 356.851 903.184C353.736 903.739 351.24 904.464 349.363 905.36C347.486 906.256 346.142 907.301 345.331 908.496C344.52 909.691 344.115 910.992 344.115 912.4C344.115 915.173 344.926 917.157 346.547 918.352C348.211 919.547 350.366 920.144 353.011 920.144C356.254 920.144 359.048 919.568 361.395 918.416C363.784 917.221 366.11 915.429 368.371 913.04V901.968ZM332.147 873.488C339.699 866.576 348.787 863.12 359.411 863.12C363.251 863.12 366.686 863.76 369.715 865.04C372.744 866.277 375.304 868.027 377.395 870.288C379.486 872.507 381.064 875.173 382.131 878.288C383.24 881.403 383.795 884.816 383.795 888.528V930H376.627C375.134 930 373.982 929.787 373.171 929.36C372.36 928.891 371.72 927.973 371.251 926.608L369.843 921.872C368.179 923.365 366.558 924.688 364.979 925.84C363.4 926.949 361.758 927.888 360.051 928.656C358.344 929.424 356.51 930 354.547 930.384C352.627 930.811 350.494 931.024 348.147 931.024C345.374 931.024 342.814 930.661 340.467 929.936C338.12 929.168 336.094 928.037 334.387 926.544C332.68 925.051 331.358 923.195 330.419 920.976C329.48 918.757 329.011 916.176 329.011 913.232C329.011 911.568 329.288 909.925 329.843 908.304C330.398 906.64 331.294 905.061 332.531 903.568C333.811 902.075 335.454 900.667 337.459 899.344C339.464 898.021 341.918 896.869 344.819 895.888C347.763 894.907 351.176 894.117 355.059 893.52C358.942 892.88 363.379 892.496 368.371 892.368V888.528C368.371 884.133 367.432 880.891 365.555 878.8C363.678 876.667 360.968 875.6 357.427 875.6C354.867 875.6 352.734 875.899 351.027 876.496C349.363 877.093 347.891 877.776 346.611 878.544C345.331 879.269 344.158 879.931 343.091 880.528C342.067 881.125 340.915 881.424 339.635 881.424C338.526 881.424 337.587 881.147 336.819 880.592C336.051 879.995 335.432 879.312 334.963 878.544L332.147 873.488ZM414.491 912.976C416.283 915.152 418.224 916.688 420.315 917.584C422.448 918.48 424.688 918.928 427.035 918.928C429.467 918.928 431.643 918.501 433.563 917.648C435.526 916.752 437.19 915.387 438.555 913.552C439.92 911.675 440.966 909.307 441.691 906.448C442.416 903.547 442.779 900.091 442.779 896.08C442.779 888.869 441.584 883.664 439.195 880.464C436.806 877.221 433.371 875.6 428.891 875.6C425.862 875.6 423.216 876.304 420.955 877.712C418.694 879.077 416.539 881.019 414.491 883.536V912.976ZM414.491 872.4C417.136 869.627 420.059 867.429 423.259 865.808C426.502 864.144 430.192 863.312 434.331 863.312C438.128 863.312 441.542 864.059 444.571 865.552C447.643 867.045 450.246 869.2 452.379 872.016C454.555 874.789 456.219 878.16 457.371 882.128C458.523 886.096 459.099 890.555 459.099 895.504C459.099 900.837 458.438 905.68 457.115 910.032C455.792 914.384 453.894 918.117 451.419 921.232C448.987 924.304 446.043 926.693 442.587 928.4C439.131 930.107 435.291 930.96 431.067 930.96C429.019 930.96 427.163 930.747 425.499 930.32C423.835 929.936 422.299 929.381 420.891 928.656C419.483 927.931 418.182 927.056 416.987 926.032C415.835 924.965 414.726 923.792 413.659 922.512L412.955 926.928C412.699 928.037 412.251 928.827 411.611 929.296C411.014 929.765 410.182 930 409.115 930H398.683V834.896H414.491V872.4ZM487.308 834.896V930H471.5V834.896H487.308ZM545.362 889.616C545.362 887.568 545.063 885.648 544.466 883.856C543.911 882.021 543.058 880.421 541.906 879.056C540.754 877.691 539.282 876.624 537.49 875.856C535.741 875.045 533.693 874.64 531.346 874.64C526.781 874.64 523.175 875.941 520.53 878.544C517.927 881.147 516.263 884.837 515.538 889.616H545.362ZM515.218 899.152C515.474 902.523 516.071 905.445 517.01 907.92C517.949 910.352 519.186 912.379 520.722 914C522.258 915.579 524.071 916.773 526.162 917.584C528.295 918.352 530.642 918.736 533.202 918.736C535.762 918.736 537.959 918.437 539.794 917.84C541.671 917.243 543.293 916.581 544.658 915.856C546.066 915.131 547.282 914.469 548.306 913.872C549.373 913.275 550.397 912.976 551.378 912.976C552.701 912.976 553.682 913.467 554.322 914.448L558.866 920.208C557.117 922.256 555.154 923.984 552.978 925.392C550.802 926.757 548.519 927.867 546.13 928.72C543.783 929.531 541.373 930.107 538.898 930.448C536.466 930.789 534.098 930.96 531.794 930.96C527.229 930.96 522.983 930.213 519.058 928.72C515.133 927.184 511.719 924.944 508.818 922C505.917 919.013 503.634 915.344 501.97 910.992C500.306 906.597 499.474 901.52 499.474 895.76C499.474 891.28 500.199 887.077 501.65 883.152C503.101 879.184 505.17 875.749 507.858 872.848C510.589 869.904 513.895 867.579 517.778 865.872C521.703 864.165 526.119 863.312 531.026 863.312C535.165 863.312 538.983 863.973 542.482 865.296C545.981 866.619 548.989 868.56 551.506 871.12C554.023 873.637 555.986 876.752 557.394 880.464C558.845 884.133 559.57 888.336 559.57 893.072C559.57 895.461 559.314 897.083 558.802 897.936C558.29 898.747 557.309 899.152 555.858 899.152H515.218ZM601.534 921.296C601.534 919.973 601.769 918.715 602.238 917.52C602.75 916.325 603.433 915.301 604.286 914.448C605.139 913.595 606.163 912.912 607.358 912.4C608.553 911.888 609.833 911.632 611.198 911.632C612.563 911.632 613.822 911.888 614.974 912.4C616.169 912.912 617.193 913.595 618.046 914.448C618.942 915.301 619.646 916.325 620.158 917.52C620.67 918.715 620.926 919.973 620.926 921.296C620.926 922.661 620.67 923.941 620.158 925.136C619.646 926.288 618.942 927.291 618.046 928.144C617.193 928.997 616.169 929.659 614.974 930.128C613.822 930.64 612.563 930.896 611.198 930.896C609.833 930.896 608.553 930.64 607.358 930.128C606.163 929.659 605.139 928.997 604.286 928.144C603.433 927.291 602.75 926.288 602.238 925.136C601.769 923.941 601.534 922.661 601.534 921.296ZM601.534 875.664C601.534 874.341 601.769 873.083 602.238 871.888C602.75 870.693 603.433 869.669 604.286 868.816C605.139 867.963 606.163 867.28 607.358 866.768C608.553 866.256 609.833 866 611.198 866C612.563 866 613.822 866.256 614.974 866.768C616.169 867.28 617.193 867.963 618.046 868.816C618.942 869.669 619.646 870.693 620.158 871.888C620.67 873.083 620.926 874.341 620.926 875.664C620.926 877.029 620.67 878.309 620.158 879.504C619.646 880.656 618.942 881.659 618.046 882.512C617.193 883.365 616.169 884.048 614.974 884.56C613.822 885.029 612.563 885.264 611.198 885.264C609.833 885.264 608.553 885.029 607.358 884.56C606.163 884.048 605.139 883.365 604.286 882.512C603.433 881.659 602.75 880.656 602.238 879.504C601.769 878.309 601.534 877.029 601.534 875.664ZM646.118 889.872C646.118 898.661 647.185 907.301 649.318 915.792C651.451 924.283 654.502 932.261 658.47 939.728C658.897 940.581 659.131 941.328 659.174 941.968C659.259 942.651 659.217 943.227 659.046 943.696C658.875 944.208 658.598 944.635 658.214 944.976C657.873 945.36 657.489 945.68 657.062 945.936L650.022 950.224C646.865 945.36 644.177 940.475 641.958 935.568C639.739 930.661 637.926 925.712 636.518 920.72C635.11 915.728 634.065 910.672 633.382 905.552C632.742 900.432 632.422 895.205 632.422 889.872C632.422 884.539 632.742 879.312 633.382 874.192C634.065 869.029 635.11 863.952 636.518 858.96C637.926 853.968 639.739 849.04 641.958 844.176C644.177 839.269 646.865 834.384 650.022 829.52L657.062 833.744C657.489 834 657.873 834.32 658.214 834.704C658.598 835.045 658.875 835.472 659.046 835.984C659.217 836.453 659.259 837.029 659.174 837.712C659.131 838.352 658.897 839.12 658.47 840.016C654.502 847.44 651.451 855.419 649.318 863.952C647.185 872.443 646.118 881.083 646.118 889.872Z" fill="#B20056"/>
<defs>
<clipPath id="clip0_18_25">
<rect width="335.765" height="464.888" fill="white" transform="matrix(-1 0 0 1 349.765 139.672)"/>
</clipPath>
<clipPath id="clip1_18_25">
<rect width="335.765" height="464.888" fill="white" transform="translate(376.515 139.672)"/>
</clipPath>
</defs>
</svg>
