<svg width="757" height="590" viewBox="0 0 757 590" fill="none" xmlns="http://www.w3.org/2000/svg">
<path d="M168.867 0C255.183 0 329.241 28.3437 364 69.0919V590C329.239 549.241 255.173 520.903 168.867 520.903C106.93 520.903 51.4138 535.656 12 558.614V37.7191C51.4152 14.5267 106.942 0.00271759 168.867 0.00271759V0Z" fill="#021323"/>
<g clip-path="url(#clip0_9_292)">
<path d="M60.4322 390.3C153.902 406.83 182.224 348.977 241.708 317.297C299.504 286.511 345.015 310.417 369.394 341.85C393.753 310.417 439.26 286.515 497.059 317.297C556.535 348.977 584.86 406.826 678.325 390.3C719.109 383.087 597.166 463.304 497.059 463.304C433.914 463.304 391.856 450.295 369.394 430.573C346.923 450.291 304.864 463.304 241.708 463.304C141.595 463.304 19.6479 383.087 60.4322 390.3Z" fill="#B20056"/>
<circle cx="102" cy="153" r="25" fill="#B20056"/>
<circle cx="85" cy="203" r="20" fill="#B20056"/>
<circle cx="77" cy="246" r="15" fill="#B20056"/>
<circle cx="76.5" cy="281.5" r="12.5" fill="#B20056"/>
<circle cx="77" cy="313" r="10" fill="#B20056"/>
</g>
<ellipse cx="221.5" cy="79" rx="34.5" ry="21" fill="#B20056"/>
<path d="M310.5 106C310.5 118.536 302.452 131.411 286.24 141.676C270.159 151.859 247.298 158.5 221.5 158.5C195.702 158.5 172.841 151.859 156.76 141.676C140.547 131.411 132.5 118.536 132.5 106C132.5 93.4636 140.547 80.5887 156.76 70.3235C172.841 60.1413 195.702 53.5 221.5 53.5C247.298 53.5 270.159 60.1413 286.24 70.3235C302.452 80.5887 310.5 93.4636 310.5 106Z" stroke="#B20056" stroke-width="21"/>
<path d="M588.133 0C501.817 0 427.759 28.3437 393 69.0919V590C427.761 549.241 501.827 520.903 588.133 520.903C650.07 520.903 705.586 535.656 745 558.614V37.7191C705.585 14.5267 650.058 0.00271759 588.133 0.00271759V0Z" fill="#021323"/>
<g clip-path="url(#clip1_9_292)">
<path d="M696.568 390.3C603.098 406.83 574.776 348.977 515.292 317.297C457.496 286.511 411.985 310.417 387.606 341.85C363.247 310.417 317.74 286.515 259.941 317.297C200.465 348.977 172.14 406.826 78.6753 390.3C37.891 383.087 159.834 463.304 259.941 463.304C323.085 463.304 365.144 450.295 387.606 430.573C410.077 450.291 452.136 463.304 515.292 463.304C615.405 463.304 737.352 383.087 696.568 390.3Z" fill="#B20056"/>
</g>
<ellipse cx="34.5" cy="21" rx="34.5" ry="21" transform="matrix(-1 0 0 1 570 58)" fill="#B20056"/>
<path d="M446.5 106C446.5 118.536 454.548 131.411 470.76 141.676C486.841 151.859 509.702 158.5 535.5 158.5C561.298 158.5 584.159 151.859 600.24 141.676C616.453 131.411 624.5 118.536 624.5 106C624.5 93.4636 616.453 80.5887 600.24 70.3235C584.159 60.1413 561.298 53.5 535.5 53.5C509.702 53.5 486.841 60.1413 470.76 70.3235C454.548 80.5887 446.5 93.4636 446.5 106Z" stroke="#B20056" stroke-width="21"/>
<defs>
<clipPath id="clip0_9_292">
<rect width="364" height="479" fill="white" transform="matrix(-1 0 0 1 364 79)"/>
</clipPath>
<clipPath id="clip1_9_292">
<rect width="364" height="479" fill="white" transform="translate(393 79)"/>
</clipPath>
</defs>
</svg>
